<svg width="48" height="70" viewBox="0 0 48 70" fill="none" xmlns="http://www.w3.org/2000/svg">
<path d="M0 10C0 4.47715 4.47715 0 10 0H48V70H10C4.47715 70 0 65.5228 0 60V10Z" fill="#3BAEE4"/>
<path d="M18.3203 40H16.5908L12.1543 32.9385V40H10.4248V30.0469H12.1543L16.6045 37.1357V30.0469H18.3203V40ZM26.1816 35.5566H22.0938V38.6191H26.8721V40H20.3643V30.0469H26.8242V31.4414H22.0938V34.1895H26.1816V35.5566ZM36.0869 37.5391L37.6182 30.0469H39.334L37.0371 40H35.3828L33.4893 32.7334L31.5547 40H29.8936L27.5967 30.0469H29.3125L30.8574 37.5254L32.7578 30.0469H34.207L36.0869 37.5391Z" fill="white"/>
</svg>
