<svg width="48" height="70" viewBox="0 0 48 70" fill="none" xmlns="http://www.w3.org/2000/svg">
<path d="M0 10C0 4.47715 4.47715 0 10 0H48V70H10C4.47715 70 0 65.5228 0 60V10Z" fill="#5B63D9"/>
<path d="M31.2994 26.7196H29.3083V24.5099C29.3083 24.2295 29.0843 24 28.8105 24H27.1513C26.8775 24 26.6535 24.2295 26.6535 24.5099V26.7196H21.344V24.5099C21.344 24.2295 21.12 24 20.8462 24H19.187C18.9132 24 18.6892 24.2295 18.6892 24.5099V26.7196H16.6981C15.5989 26.7196 14.707 27.6332 14.707 28.7593V43.7169C14.707 44.843 15.5989 45.7566 16.6981 45.7566H31.2994C32.3986 45.7566 33.2904 44.843 33.2904 43.7169V28.7593C33.2904 27.6332 32.3986 26.7196 31.2994 26.7196ZM31.0505 43.7169H16.947C16.8101 43.7169 16.6981 43.6022 16.6981 43.462V30.7989H31.2994V43.462C31.2994 43.6022 31.1874 43.7169 31.0505 43.7169Z" fill="white"/>
</svg>
